<mxfile host="65bd71144e" scale="5" border="0">
    <diagram name="Page-1" id="mdyg5A25XIFZE1ydTSGr">
        <mxGraphModel dx="896" dy="623" grid="1" gridSize="10" guides="1" tooltips="1" connect="1" arrows="1" fold="1" page="1" pageScale="1" pageWidth="850" pageHeight="1100" math="0" shadow="0">
            <root>
                <mxCell id="0"/>
                <mxCell id="1" parent="0"/>
                <mxCell id="6RnJAsfNRfN6jdiAdCs8-1" value="" style="rounded=0;whiteSpace=wrap;html=1;movable=1;resizable=1;rotatable=1;deletable=1;editable=1;locked=0;connectable=1;fillColor=#ffe6cc;strokeColor=#d79b00;" parent="1" vertex="1">
                    <mxGeometry x="40" y="40" width="760" height="560" as="geometry"/>
                </mxCell>
                <mxCell id="6RnJAsfNRfN6jdiAdCs8-2" value="&lt;b&gt;&lt;font color=&quot;#000000&quot;&gt;&lt;span style=&quot;white-space: pre;&quot;&gt;&#9;&lt;/span&gt;alamSYS&lt;/font&gt;&lt;/b&gt;" style="rounded=0;whiteSpace=wrap;html=1;fontFamily=cmu;fontSource=https%3A%2F%2Ffontlibrary.org%2F%2Fface%2Fcmu-serif;verticalAlign=top;align=left;fillColor=#dae8fc;strokeColor=#6c8ebf;shadow=1;" parent="1" vertex="1">
                    <mxGeometry x="230" y="77.5" width="380" height="490" as="geometry"/>
                </mxCell>
                <mxCell id="6RnJAsfNRfN6jdiAdCs8-3" value="&lt;font data-font-src=&quot;https://fontlibrary.org//face/cmu-serif&quot;&gt;&lt;b&gt;Preprocessor&lt;/b&gt;&lt;/font&gt;" style="rounded=0;whiteSpace=wrap;html=1;fillColor=#e1d5e7;strokeColor=#9673a6;shadow=1;verticalAlign=top;fontColor=#000000;fontFamily=cmu;fontSource=https%3A%2F%2Ffontlibrary.org%2F%2Fface%2Fcmu-serif;" parent="1" vertex="1">
                    <mxGeometry x="260" y="117.5" width="315" height="240" as="geometry"/>
                </mxCell>
                <mxCell id="6RnJAsfNRfN6jdiAdCs8-4" value="&lt;font color=&quot;#000000&quot; data-font-src=&quot;https://fontlibrary.org//face/cmu-serif&quot;&gt;&lt;b&gt;alamAPI&lt;span style=&quot;white-space: pre;&quot;&gt;&#9;&lt;/span&gt;&lt;span style=&quot;white-space: pre;&quot;&gt;&#9;&lt;/span&gt;&lt;/b&gt;&lt;/font&gt;" style="rounded=0;whiteSpace=wrap;html=1;fillColor=#e1d5e7;strokeColor=#9673a6;shadow=1;verticalAlign=top;align=right;fontFamily=cmu;fontSource=https%3A%2F%2Ffontlibrary.org%2F%2Fface%2Fcmu-serif;" parent="1" vertex="1">
                    <mxGeometry x="260" y="377.5" width="315" height="170" as="geometry"/>
                </mxCell>
                <mxCell id="6RnJAsfNRfN6jdiAdCs8-5" value="&lt;font color=&quot;#000000&quot; data-font-src=&quot;https://fontlibrary.org//face/cmu-serif&quot;&gt;&lt;b&gt;Data Collector&lt;/b&gt;&lt;/font&gt;" style="rounded=0;whiteSpace=wrap;html=1;fillColor=#fff2cc;strokeColor=#d6b656;shadow=0;verticalAlign=top;fontFamily=cmu;fontSource=https%3A%2F%2Ffontlibrary.org%2F%2Fface%2Fcmu-serif;" parent="1" vertex="1">
                    <mxGeometry x="342.5" y="147.5" width="150" height="30" as="geometry"/>
                </mxCell>
                <mxCell id="6RnJAsfNRfN6jdiAdCs8-6" value="&lt;font color=&quot;#000000&quot; data-font-src=&quot;https://fontlibrary.org//face/cmu-serif&quot;&gt;&lt;b&gt;Data Processor&lt;/b&gt;&lt;/font&gt;" style="rounded=0;whiteSpace=wrap;html=1;fillColor=#fff2cc;strokeColor=#d6b656;shadow=0;verticalAlign=top;fontFamily=cmu;fontSource=https%3A%2F%2Ffontlibrary.org%2F%2Fface%2Fcmu-serif;" parent="1" vertex="1">
                    <mxGeometry x="279.37" y="192.5" width="281.25" height="155" as="geometry"/>
                </mxCell>
                <mxCell id="6RnJAsfNRfN6jdiAdCs8-21" style="edgeStyle=orthogonalEdgeStyle;rounded=0;orthogonalLoop=1;jettySize=auto;html=1;exitX=0;exitY=0.5;exitDx=0;exitDy=0;entryX=0;entryY=0.5;entryDx=0;entryDy=0;fontColor=#000000;strokeColor=#000000;" parent="1" source="6RnJAsfNRfN6jdiAdCs8-7" target="6RnJAsfNRfN6jdiAdCs8-8" edge="1">
                    <mxGeometry relative="1" as="geometry"/>
                </mxCell>
                <mxCell id="6RnJAsfNRfN6jdiAdCs8-7" value="&lt;font data-font-src=&quot;https://fontlibrary.org//face/cmu-serif&quot;&gt;&lt;b&gt;Deep Learning Model Applicator&lt;/b&gt;&lt;/font&gt;" style="rounded=0;whiteSpace=wrap;html=1;fillColor=#f5f5f5;strokeColor=#666666;shadow=0;verticalAlign=top;fontColor=#333333;fontFamily=cmu;fontSource=https%3A%2F%2Ffontlibrary.org%2F%2Fface%2Fcmu-serif;" parent="1" vertex="1">
                    <mxGeometry x="325" y="222.5" width="200" height="30" as="geometry"/>
                </mxCell>
                <mxCell id="6RnJAsfNRfN6jdiAdCs8-22" style="edgeStyle=orthogonalEdgeStyle;rounded=0;orthogonalLoop=1;jettySize=auto;html=1;exitX=1;exitY=0.5;exitDx=0;exitDy=0;entryX=1;entryY=0.5;entryDx=0;entryDy=0;fontColor=#000000;strokeColor=#000000;" parent="1" source="6RnJAsfNRfN6jdiAdCs8-8" target="6RnJAsfNRfN6jdiAdCs8-9" edge="1">
                    <mxGeometry relative="1" as="geometry"/>
                </mxCell>
                <mxCell id="6RnJAsfNRfN6jdiAdCs8-8" value="&lt;font data-font-src=&quot;https://fontlibrary.org//face/cmu-serif&quot;&gt;&lt;b&gt;Trading Algorithm Applicator&lt;/b&gt;&lt;/font&gt;" style="rounded=0;whiteSpace=wrap;html=1;fillColor=#f5f5f5;strokeColor=#666666;shadow=0;verticalAlign=top;fontColor=#333333;fontFamily=cmu;fontSource=https%3A%2F%2Ffontlibrary.org%2F%2Fface%2Fcmu-serif;" parent="1" vertex="1">
                    <mxGeometry x="325" y="262.5" width="200" height="30" as="geometry"/>
                </mxCell>
                <mxCell id="6RnJAsfNRfN6jdiAdCs8-23" style="edgeStyle=orthogonalEdgeStyle;rounded=0;orthogonalLoop=1;jettySize=auto;html=1;exitX=0;exitY=0.5;exitDx=0;exitDy=0;fontColor=#000000;strokeColor=#000000;" parent="1" source="6RnJAsfNRfN6jdiAdCs8-9" target="6RnJAsfNRfN6jdiAdCs8-13" edge="1">
                    <mxGeometry relative="1" as="geometry">
                        <Array as="points">
                            <mxPoint x="305" y="318"/>
                            <mxPoint x="305" y="370"/>
                            <mxPoint x="323" y="370"/>
                        </Array>
                    </mxGeometry>
                </mxCell>
                <mxCell id="6RnJAsfNRfN6jdiAdCs8-9" value="&lt;font data-font-src=&quot;https://fontlibrary.org//face/cmu-serif&quot;&gt;&lt;b&gt;Database Updater&lt;/b&gt;&lt;/font&gt;" style="rounded=0;whiteSpace=wrap;html=1;fillColor=#f5f5f5;strokeColor=#666666;shadow=0;verticalAlign=top;fontColor=#333333;fontFamily=cmu;fontSource=https%3A%2F%2Ffontlibrary.org%2F%2Fface%2Fcmu-serif;" parent="1" vertex="1">
                    <mxGeometry x="325" y="302.5" width="200" height="30" as="geometry"/>
                </mxCell>
                <mxCell id="6RnJAsfNRfN6jdiAdCs8-16" style="edgeStyle=orthogonalEdgeStyle;rounded=0;orthogonalLoop=1;jettySize=auto;html=1;exitX=1;exitY=0;exitDx=0;exitDy=37.5;exitPerimeter=0;entryX=0;entryY=0.25;entryDx=0;entryDy=0;fontColor=#000000;strokeColor=#000000;" parent="1" source="6RnJAsfNRfN6jdiAdCs8-13" target="6RnJAsfNRfN6jdiAdCs8-15" edge="1">
                    <mxGeometry relative="1" as="geometry"/>
                </mxCell>
                <mxCell id="6RnJAsfNRfN6jdiAdCs8-13" value="&lt;font color=&quot;#000000&quot;&gt;&lt;b style=&quot;&quot;&gt;alamAPI&lt;br&gt;Database&lt;/b&gt;&lt;/font&gt;" style="shape=cylinder3;whiteSpace=wrap;html=1;boundedLbl=1;backgroundOutline=1;size=15;fillColor=#fff2cc;strokeColor=#d6b656;fontFamily=cmu;fontSource=https%3A%2F%2Ffontlibrary.org%2F%2Fface%2Fcmu-serif;" parent="1" vertex="1">
                    <mxGeometry x="279.37" y="417.5" width="87" height="120" as="geometry"/>
                </mxCell>
                <mxCell id="6RnJAsfNRfN6jdiAdCs8-17" style="edgeStyle=orthogonalEdgeStyle;rounded=0;orthogonalLoop=1;jettySize=auto;html=1;exitX=0;exitY=0.75;exitDx=0;exitDy=0;entryX=1;entryY=0;entryDx=0;entryDy=82.5;entryPerimeter=0;fontColor=#000000;strokeColor=#000000;" parent="1" source="6RnJAsfNRfN6jdiAdCs8-15" target="6RnJAsfNRfN6jdiAdCs8-13" edge="1">
                    <mxGeometry relative="1" as="geometry"/>
                </mxCell>
                <mxCell id="6RnJAsfNRfN6jdiAdCs8-31" style="edgeStyle=orthogonalEdgeStyle;rounded=0;orthogonalLoop=1;jettySize=auto;html=1;exitX=1;exitY=0.25;exitDx=0;exitDy=0;entryX=0;entryY=0.5;entryDx=0;entryDy=0;fontColor=#000000;strokeColor=#000000;" parent="1" source="6RnJAsfNRfN6jdiAdCs8-15" target="6RnJAsfNRfN6jdiAdCs8-26" edge="1">
                    <mxGeometry relative="1" as="geometry">
                        <Array as="points">
                            <mxPoint x="630" y="450"/>
                            <mxPoint x="630" y="487"/>
                        </Array>
                    </mxGeometry>
                </mxCell>
                <mxCell id="6RnJAsfNRfN6jdiAdCs8-15" value="&lt;font color=&quot;#000000&quot; data-font-src=&quot;https://fontlibrary.org//face/cmu-serif&quot;&gt;&lt;b&gt;API Endpoints&lt;/b&gt;&lt;/font&gt;" style="rounded=0;whiteSpace=wrap;html=1;fillColor=#fff2cc;strokeColor=#d6b656;shadow=0;verticalAlign=middle;fontFamily=cmu;fontSource=https%3A%2F%2Ffontlibrary.org%2F%2Fface%2Fcmu-serif;" parent="1" vertex="1">
                    <mxGeometry x="420" y="422.5" width="133.63" height="110" as="geometry"/>
                </mxCell>
                <mxCell id="6RnJAsfNRfN6jdiAdCs8-24" style="edgeStyle=orthogonalEdgeStyle;rounded=0;orthogonalLoop=1;jettySize=auto;html=1;exitX=1;exitY=0.5;exitDx=0;exitDy=0;entryX=0;entryY=0.5;entryDx=0;entryDy=0;fontColor=#000000;strokeColor=#000000;" parent="1" source="6RnJAsfNRfN6jdiAdCs8-19" target="6RnJAsfNRfN6jdiAdCs8-5" edge="1">
                    <mxGeometry relative="1" as="geometry">
                        <Array as="points">
                            <mxPoint x="210" y="325"/>
                            <mxPoint x="210" y="163"/>
                        </Array>
                    </mxGeometry>
                </mxCell>
                <mxCell id="6RnJAsfNRfN6jdiAdCs8-19" value="&lt;b&gt;External Market&lt;br&gt;Data Provider&lt;br&gt;&lt;/b&gt;" style="rounded=0;whiteSpace=wrap;html=1;fillColor=#d5e8d4;strokeColor=#82b366;fontFamily=cmu;fontSource=https%3A%2F%2Ffontlibrary.org%2F%2Fface%2Fcmu-serif;shadow=1;fontColor=#000000;" parent="1" vertex="1">
                    <mxGeometry x="70" y="100" width="120" height="450" as="geometry"/>
                </mxCell>
                <mxCell id="6RnJAsfNRfN6jdiAdCs8-20" style="edgeStyle=orthogonalEdgeStyle;rounded=0;orthogonalLoop=1;jettySize=auto;html=1;exitX=1;exitY=0.5;exitDx=0;exitDy=0;entryX=1;entryY=0.25;entryDx=0;entryDy=0;fontColor=#000000;strokeColor=#000000;" parent="1" source="6RnJAsfNRfN6jdiAdCs8-5" target="6RnJAsfNRfN6jdiAdCs8-7" edge="1">
                    <mxGeometry relative="1" as="geometry"/>
                </mxCell>
                <mxCell id="6RnJAsfNRfN6jdiAdCs8-33" style="edgeStyle=orthogonalEdgeStyle;rounded=0;orthogonalLoop=1;jettySize=auto;html=1;exitX=0;exitY=0.25;exitDx=0;exitDy=0;entryX=1;entryY=0.75;entryDx=0;entryDy=0;fontColor=#000000;strokeColor=#000000;" parent="1" source="6RnJAsfNRfN6jdiAdCs8-25" target="6RnJAsfNRfN6jdiAdCs8-7" edge="1">
                    <mxGeometry relative="1" as="geometry">
                        <Array as="points">
                            <mxPoint x="630" y="132"/>
                            <mxPoint x="630" y="245"/>
                        </Array>
                    </mxGeometry>
                </mxCell>
                <mxCell id="6RnJAsfNRfN6jdiAdCs8-34" style="edgeStyle=orthogonalEdgeStyle;rounded=0;orthogonalLoop=1;jettySize=auto;html=1;exitX=0;exitY=0.5;exitDx=0;exitDy=0;entryX=1;entryY=0.25;entryDx=0;entryDy=0;fontColor=#000000;strokeColor=#000000;" parent="1" source="6RnJAsfNRfN6jdiAdCs8-25" target="6RnJAsfNRfN6jdiAdCs8-8" edge="1">
                    <mxGeometry relative="1" as="geometry">
                        <Array as="points">
                            <mxPoint x="640" y="164"/>
                            <mxPoint x="640" y="270"/>
                        </Array>
                    </mxGeometry>
                </mxCell>
                <mxCell id="6RnJAsfNRfN6jdiAdCs8-25" value="&lt;b&gt;Deep Learning Model and Trading Algorithm&lt;br&gt;&lt;/b&gt;" style="rounded=0;whiteSpace=wrap;html=1;fillColor=#d5e8d4;strokeColor=#82b366;fontFamily=cmu;fontSource=https%3A%2F%2Ffontlibrary.org%2F%2Fface%2Fcmu-serif;shadow=1;fontColor=#000000;" parent="1" vertex="1">
                    <mxGeometry x="650" y="100" width="120" height="127.5" as="geometry"/>
                </mxCell>
                <mxCell id="6RnJAsfNRfN6jdiAdCs8-32" style="edgeStyle=orthogonalEdgeStyle;rounded=0;orthogonalLoop=1;jettySize=auto;html=1;exitX=0;exitY=0.75;exitDx=0;exitDy=0;entryX=1;entryY=0.75;entryDx=0;entryDy=0;fontColor=#000000;strokeColor=#000000;" parent="1" source="6RnJAsfNRfN6jdiAdCs8-26" target="6RnJAsfNRfN6jdiAdCs8-15" edge="1">
                    <mxGeometry relative="1" as="geometry">
                        <Array as="points">
                            <mxPoint x="630" y="519"/>
                            <mxPoint x="630" y="505"/>
                        </Array>
                    </mxGeometry>
                </mxCell>
                <mxCell id="6RnJAsfNRfN6jdiAdCs8-26" value="&lt;b&gt;External Network-enabled Application&lt;br&gt;&lt;/b&gt;" style="rounded=0;whiteSpace=wrap;html=1;fillColor=#d5e8d4;strokeColor=#82b366;fontFamily=cmu;fontSource=https%3A%2F%2Ffontlibrary.org%2F%2Fface%2Fcmu-serif;shadow=1;fontColor=#000000;" parent="1" vertex="1">
                    <mxGeometry x="650" y="423" width="120" height="127.5" as="geometry"/>
                </mxCell>
            </root>
        </mxGraphModel>
    </diagram>
</mxfile>